<?xml version="1.0" standalone="no"?>
<!DOCTYPE svg PUBLIC "-//W3C//DTD SVG 20010904//EN"
 "http://www.w3.org/TR/2001/REC-SVG-20010904/DTD/svg10.dtd">
<svg version="1.0" xmlns="http://www.w3.org/2000/svg"
 width="1280.000000pt" height="1086.000000pt" viewBox="0 0 1280.000000 1086.000000"
 preserveAspectRatio="xMidYMid meet">
<metadata>
Created by potrace 1.15, written by Peter Selinger 2001-2017
</metadata>
<g transform="translate(0.000000,1086.000000) scale(0.100000,-0.100000)"
fill="#000000" stroke="none">
<path d="M5232 10845 c-149 -27 -278 -76 -413 -157 -71 -43 -78 -45 -174 -51
-242 -15 -459 -111 -622 -273 -88 -89 -163 -214 -163 -273 0 -12 -21 -28 -67
-52 -89 -44 -217 -170 -257 -253 -30 -64 -51 -128 -61 -194 -6 -38 -13 -47
-68 -84 -74 -50 -251 -225 -329 -323 -96 -122 -235 -340 -303 -475 -26 -50
-26 -50 -10 -133 49 -268 75 -574 95 -1137 19 -529 44 -820 92 -1058 11 -57
19 -104 17 -106 -2 -1 -69 -46 -149 -99 -330 -219 -545 -415 -990 -902 -91
-99 -250 -267 -355 -374 -171 -175 -187 -193 -156 -187 18 3 68 6 110 6 l76 1
133 119 c73 65 235 215 360 333 435 411 617 556 937 748 183 110 293 165 304
153 5 -5 28 -56 50 -114 52 -134 89 -207 174 -348 l67 -113 -15 -212 c-18
-254 -22 -291 -42 -382 -22 -101 -22 -101 -72 -64 -24 17 -47 27 -51 22 -4 -4
-54 -75 -110 -158 -56 -82 -110 -157 -120 -165 -10 -8 -403 -470 -872 -1027
l-854 -1012 -697 -1140 c-383 -628 -697 -1147 -697 -1154 0 -19 108 2 233 43
161 54 229 102 452 321 110 107 218 209 240 226 473 361 1496 219 3632 -505
412 -140 557 -183 753 -222 288 -57 726 -82 1090 -61 275 16 442 32 985 96
253 30 543 61 645 70 102 9 206 19 232 23 l46 7 -457 690 -457 690 -126 110
c-70 60 -127 115 -127 121 -1 7 105 215 234 464 130 249 235 454 233 455 -2 2
-86 9 -188 15 -102 6 -195 13 -207 16 -32 6 -30 47 6 109 31 53 188 235 203
235 5 0 102 -31 216 -69 534 -179 880 -228 1345 -191 199 16 281 55 392 187
145 170 205 295 205 428 0 49 -15 104 -75 285 -41 123 -75 240 -75 258 0 93
53 219 143 342 34 46 52 79 46 85 -30 31 6 19 117 -40 275 -146 384 -226 442
-330 55 -96 89 -185 108 -278 23 -114 15 -324 -19 -477 -34 -158 -51 -380 -51
-670 1 -457 59 -766 198 -1055 162 -335 437 -565 797 -665 101 -28 298 -60
367 -60 252 1 551 281 762 715 65 133 131 304 165 426 14 52 18 57 54 68 74
22 102 67 175 289 36 110 66 215 66 233 0 42 -30 107 -61 136 -31 28 -258 137
-409 196 -230 90 -477 160 -710 202 -121 22 -167 12 -225 -49 -35 -37 -47 -64
-103 -235 -81 -243 -82 -294 -12 -369 l22 -23 -30 -82 c-53 -147 -99 -324
-127 -491 l-6 -38 -26 23 c-44 42 -140 176 -187 261 -123 226 -188 484 -261
1028 -71 529 -141 821 -265 1103 -31 72 -53 105 -95 147 -55 54 -57 55 -358
166 -166 61 -302 115 -302 120 0 5 -21 45 -47 89 -86 148 -119 301 -100 474 5
51 11 94 13 95 2 2 154 20 338 40 l334 37 71 37 c87 46 116 84 116 155 0 48
-9 64 -326 556 -180 278 -346 534 -370 567 -26 37 -79 90 -132 132 -89 71
-171 152 -190 188 -8 16 4 42 74 155 l84 136 -70 275 c-38 151 -72 281 -75
290 -5 13 15 12 142 -9 81 -13 407 -64 723 -114 920 -143 1282 -207 1724 -305
137 -30 252 -51 256 -47 54 63 99 134 88 138 -37 13 -365 99 -518 135 -419 99
-615 139 -1535 310 -412 77 -760 142 -771 145 -18 4 -29 26 -58 115 -50 155
-134 363 -220 547 -161 345 -325 624 -763 1303 -115 179 -235 366 -266 415
l-57 90 -445 104 -445 104 -103 -17 c-87 -15 -254 -24 -722 -38 -11 0 -47 11
-80 25 -80 34 -202 50 -286 38 -35 -5 -123 -23 -196 -40 l-132 -30 -44 25
c-90 50 -273 67 -425 39z m272 -60 c92 -19 100 -30 34 -45 -29 -7 -116 -31
-193 -52 -129 -37 -144 -39 -186 -28 -50 12 -199 15 -246 4 -28 -6 -28 -6 5
15 149 96 411 143 586 106z m-864 -210 c0 -2 -19 -14 -41 -26 -68 -34 -137
-110 -145 -159 l-7 -42 -245 -119 c-135 -66 -249 -118 -254 -117 -5 2 6 32 23
68 23 47 58 90 123 155 101 100 193 158 318 199 94 32 228 56 228 41z"/>
</g>
</svg>
